<?xml version="1.0" encoding="UTF-8"?>
<svg xmlns="http://www.w3.org/2000/svg" width="679.655" height="572.483" viewBox="0 0 679.655 572.483">
  <g id="Group_491" data-name="Group 491" transform="matrix(0.982, -0.191, 0.191, 0.982, -398.395, 48.666)">
    <path id="Path_336" data-name="Path 336" d="M20.889,452.749c.124-.051-51.283-133.8,6.737-268.376C53.3,124.823,110.6,71.043,170.227,38.45c33.506-18.323,89.612-34.377,128.359-37.24C460.374-10.756,566.2,66.918,594.516,196.367c21.25,97.172-27.382,186.547-105.156,230.49-79.169,44.743-151.632,44.053-231.871,25.26-48.539-11.371-106.76-28.079-182.681-13.265a404.525,404.525,0,0,0-53.919,13.9" transform="translate(379.516 142)" fill="none" stroke="#fac791" stroke-width="2"></path>
  </g>
</svg>
