<?xml version="1.0" encoding="UTF-8"?>
<svg xmlns="http://www.w3.org/2000/svg" width="198.132" height="32.813" viewBox="0 0 198.132 32.813">
  <defs>
    <style>
      .cls-1 {
        fill: #fefefe;
      }
    </style>
  </defs>
  <g id="Grupo_3" data-name="Grupo 3" transform="translate(-427 -3810)">
    <g id="Grupo_2" data-name="Grupo 2" transform="translate(427 3810)">
      <path id="Caminho_1" data-name="Caminho 1" class="cls-1" d="M19.545,0V6.9h3.518V3.521h6.619v6.968H13.658V0H0V32.813H13.658V22.327h5.887V32.813H33.2V18.806H29.641V29.3H23.063V18.806H10.123L10.14,29.3H3.559V3.521H10.14l-.017,10.486H33.2V0Z"></path>
      <g id="Grupo_1" data-name="Grupo 1" transform="translate(44.204 3.091)">
        <path id="Caminho_2" data-name="Caminho 2" class="cls-1" d="M146.8,19.135h-9.269V9.12h-7.1V35.755h7.1V25.313H146.8V35.755h7.1V9.12h-7.1Z" transform="translate(-130.43 -9.12)"></path>
        <path id="Caminho_3" data-name="Caminho 3" class="cls-1" d="M210.4,9.12,202.41,35.758H209.8l1.315-4.582h9.554l1.383,4.582H229.3L221.2,9.12H210.4Zm2.237,16.864,3.233-11.54h.071l3.3,11.54h-6.605Z" transform="translate(-178.015 -9.12)"></path>
        <path id="Caminho_4" data-name="Caminho 4" class="cls-1" d="M291.023,9.12h-7.1V35.755h18.223V29.576h-11.12Z" transform="translate(-231.901 -9.12)"></path>
        <rect id="Retângulo_2" data-name="Retângulo 2" class="cls-1" width="7.103" height="26.638" transform="translate(72.048 0)"></rect>
        <path id="Caminho_5" data-name="Caminho 5" class="cls-1" d="M387.31,9.12H373.92V35.755h7.1V28.939h6.287c7.422,0,9.093-2.559,9.093-10.052C396.4,11.926,393.919,9.12,387.31,9.12Zm-1.42,13.638h-4.867V15.3h4.867c2.769,0,3.2.851,3.2,3.586C389.086,22.331,388.7,22.649,385.89,22.758Z" transform="translate(-291.4 -9.12)"></path>
        <path id="Caminho_6" data-name="Caminho 6" class="cls-1" d="M444.261,9.12,436.27,35.758h7.388l1.312-4.582h9.554l1.386,4.582h7.246l-8.1-26.638H444.261ZM446.5,25.984l3.233-11.54h.071l3.3,11.54Z" transform="translate(-332.619 -9.12)"></path>
        <path id="Caminho_7" data-name="Caminho 7" class="cls-1" d="M540.763,18.887c0-6.961-2.484-9.767-9.093-9.767H518.28V35.755h7.1V28.939h3.352l4.921,6.815h7.1l-5.182-7.181c4.121-.925,5.182-3.755,5.182-9.689Zm-10.513,3.87h-4.863V15.3h4.863c2.769,0,3.2.851,3.2,3.586C533.449,22.331,533.06,22.649,530.25,22.758Z" transform="translate(-386.835 -9.12)"></path>
      </g>
    </g>
  </g>
</svg>
